PathFileType	4	(X/Y/Z)	C:\Users\°ÂÌØÂü\Desktop\20210112\bx_n_0_902-Unnamed.trc
DataRate	CameraRate	NumFrames	NumMarkers	Units	OrigDataRate	OrigDataStartFrame	OrigNumFrames
50.00	50.00	       5	0	mm	50.00	365	       416
Frame#	Time	
		

365	7.280	-678.41321	104.21072	1855.50098	-742.32910	249.05000	576.04901	-688.33820	286.81500	1536.87610	-720.99194	68.55482	217.10010	-605.51593	-7.26103	805.65216	-665.19702	-76.32209	1540.90015	-716.99438	269.65540	746.24377	-675.59790	53.10196	159.89462	-674.99670	13.38180	522.03656	-748.41254	254.87892	641.79895	-613.61414	223.12039	795.20233	-689.31451	205.68948	535.87360	-777.80676	261.56381	500.61676	-517.88635	-72.87172	143.24289	-549.75012	-24.47991	163.72127	-794.15643	36.77880	174.12607	-613.28253	-6.09856	1054.32886	-600.61713	28.52231	167.71988	-705.26056	70.49104	573.92517	-796.59698	182.01523	183.85246	-766.35303	229.54362	204.86258	-590.29907	208.44501	174.51500	-882.55829	296.21237	144.71266	-553.49652	242.77237	166.22639	-652.35870	291.70959	156.77489	-615.23853	297.35074	158.44286	-528.18390	304.18793	146.52794	-707.71191	144.63814	575.03870	-680.32727	-75.40179	875.79388	-764.93317	-49.10169	487.39676	-759.45374	-21.25824	206.97720	-876.01019	-78.97449	141.37619	-584.42041	109.06934	1353.04980	-699.96478	-63.18888	758.72101	-718.18286	-38.99065	616.36609	-723.74548	-36.84636	569.12213	-714.70197	152.84229	218.61433	-675.82874	168.11882	160.26115	-606.08221	-71.60791	158.68901	-647.86292	-66.70775	162.88354	-628.78558	239.28520	1065.80298													-713.91595	279.60773	877.06134				-821.30487	88.46970	1068.79224	
366	7.300	-682.57526	104.71761	1855.93835	-740.90979	248.92862	576.20770	-690.93018	286.71146	1536.64893	-721.02039	68.75484	217.27443	-604.30731	-7.07081	805.06708	-667.34290	-76.43726	1541.43750	-715.00244	269.00128	746.05334	-675.56274	53.32502	159.58308	-674.93976	12.88800	521.54041	-747.13751	254.93501	641.97083	-612.00269	222.72679	794.88928	-688.05786	204.90962	535.71973	-776.99353	261.02679	500.60135	-517.81085	-72.96118	143.22667	-549.71771	-24.48931	163.63272	-794.20184	36.72056	174.35831	-611.46899	-5.91723	1054.05823	-600.56927	28.58020	167.56059	-705.33356	70.21376	573.93286	-796.59698	182.01523	183.85246	-766.19171	229.40945	204.98676	-590.08496	208.21953	174.52359	-882.44165	296.28186	144.84575	-553.43945	242.78915	166.03453	-652.28107	291.61798	156.86197	-615.24158	297.42795	158.44127	-528.14569	304.17987	146.55627	-707.24481	144.20656	574.79614	-678.27460	-75.57500	875.32452	-764.57672	-49.42913	487.35632	-759.58643	-21.42587	207.06110	-875.95648	-78.79716	141.44162	-584.65143	108.85212	1354.06262	-698.49835	-63.19611	758.33527	-718.03418	-39.21731	616.26111	-723.55261	-37.53106	569.33942	-714.83820	152.76421	218.45267	-675.57001	167.61505	159.97093	-606.00732	-71.30573	158.58238	-647.72638	-66.74972	162.80188	-626.35736	238.56319	1065.44495													-711.84839	279.56299	876.90442				-819.51514	88.28028	1068.52710	
367	7.320	-686.80585	105.21212	1856.01550	-740.08282	248.86234	575.97522	-693.57092	286.20853	1536.35132	-721.05225	68.52472	217.28162	-603.05109	-7.19209	804.88892	-669.05524	-76.75074	1541.87036	-712.95642	269.30814	746.03564	-675.74225	53.27436	159.84659	-674.77808	12.64673	521.11975	-745.38416	254.80881	641.58301	-609.64691	222.16058	794.99030	-687.23730	204.80292	535.49567	-776.01636	261.19638	500.77255	-517.83282	-72.87903	143.14296	-549.64136	-24.27242	163.55840	-794.35620	36.76312	174.13934	-609.62616	-6.48013	1053.75085	-600.56036	28.50833	167.62407	-705.27271	69.81150	573.91541	-796.35840	181.95117	183.58089	-766.08594	229.23343	204.88086	-590.12720	208.18796	174.50461	-882.60822	296.19223	144.69849	-553.31958	242.68547	166.10416	-652.40271	291.75482	156.80336	-615.24738	297.39890	158.61124	-528.21887	304.07733	146.44493	-706.79883	144.23128	574.40411	-676.36328	-75.93813	875.07764	-764.45764	-49.85531	487.44934	-759.77252	-21.49737	206.92741	-876.08313	-78.85428	141.48308	-584.72650	108.62212	1354.90576	-697.22876	-64.21976	758.48273	-717.27832	-39.76857	616.16382	-723.23853	-37.69115	569.22253	-714.79828	152.53149	218.12282	-675.61713	167.47957	159.83185	-605.99872	-71.30508	158.72935	-647.85846	-66.82422	162.83870	-624.60449	238.35814	1065.37671													-709.52936	279.26309	877.00055				-817.41766	87.91738	1068.30420	
368	7.340	-690.68427	105.51996	1856.20544	-738.51880	248.82573	576.03107	-695.89056	286.17532	1536.07593	-721.61133	68.83461	217.25400	-601.54535	-7.26188	804.78845	-670.78381	-76.96115	1542.04248	-711.10376	268.63486	745.81897	-675.53149	53.21432	159.69199	-674.29102	12.33181	521.17224	-744.50391	254.52368	641.75928	-608.36078	221.72560	794.70203	-686.50262	204.80876	535.20056	-775.10291	261.09991	501.07288	-517.82471	-72.83767	143.05135	-549.65442	-24.35684	163.68205	-794.16779	36.53814	174.20909	-608.32434	-6.78003	1053.55847	-600.63086	28.52841	167.46010	-705.36902	69.18947	574.05035	-796.46777	181.85452	183.89958	-766.04443	229.30751	204.93886	-589.93610	208.13487	174.60677	-882.52081	295.91016	144.54733	-553.30493	242.71364	166.00204	-652.40271	291.75482	156.80336	-615.32281	297.46179	158.67769	-528.13525	304.12054	146.44014	-704.66724	143.89348	574.42609	-674.91516	-76.32393	874.87042	-764.07306	-50.26360	487.60748	-759.71899	-21.59039	206.94710	-875.85522	-78.73365	141.22168	-584.84583	108.58715	1355.49976	-695.87390	-64.17554	758.04651	-716.75171	-40.55431	616.25531	-722.42188	-38.17466	568.89166	-714.83118	152.41342	217.96928	-675.60181	167.40289	159.49706	-606.01758	-71.36685	158.58646	-647.65161	-66.86961	163.00908	-622.21912	238.40755	1065.50635													-707.58948	279.47940	876.91321				-815.98584	88.03870	1068.14343	
369	7.360	-694.50787	106.02837	1856.33948	-737.96155	248.48741	576.30396	-698.00421	285.92230	1535.48682	-721.43481	68.82438	217.10616	-600.64746	-7.20670	804.60553	-672.35077	-77.08082	1542.48425	-709.89594	268.43213	745.91534	-675.44562	53.25733	159.43640	-674.18317	12.26084	521.08783	-742.44531	254.08105	641.82959	-606.55640	221.12517	794.21411	-685.74298	204.39384	534.90967	-774.55450	260.88348	501.25583	-517.83282	-72.87903	143.14296	-549.31952	-24.10554	163.73343	-793.79187	36.44221	173.86380	-606.48438	-7.77246	1054.00256	-600.55133	28.52100	167.46870	-704.39642	69.11160	573.46228	-796.55066	182.01558	183.91345	-766.10712	229.04753	205.08990	-589.70972	208.12515	174.40585	-882.52942	296.33389	144.80528	-553.16382	242.87025	165.93517	-652.32507	291.66321	156.89046	-615.21674	297.09058	158.45152	-528.18390	304.18793	146.52794	-704.40863	143.99661	574.72131	-673.36139	-76.88280	874.92096	-763.42157	-50.40422	487.65021	-759.72913	-21.60753	207.07626	-876.07831	-78.80435	141.53267	-584.93457	108.30879	1356.02783	-694.44244	-65.36649	758.82758	-715.87274	-40.68747	616.26343	-722.21075	-38.44101	568.83679	-714.56464	152.43074	217.88522	-675.61456	167.32867	159.43861	-605.93994	-71.13360	158.54482	-647.59576	-66.71676	162.80042	-620.68219	238.47784	1065.52234													-705.64789	278.78180	876.60980				-814.05011	87.41354	1067.79907	
